<svg width="24" height="24" viewBox="0 0 24 24" fill="none" xmlns="http://www.w3.org/2000/svg">
<path d="M12.0482 21.978C11.3888 21.5533 11.0302 21.1589 10.9722 20.7947C10.9143 20.4305 11.1537 20.0934 11.6906 19.7834C12.4959 19.3185 13.5555 18.9481 14.8694 18.6722C16.1832 18.3964 17.3903 18.2584 18.4906 18.2584C19.591 18.2584 20.3202 18.3964 20.6785 18.6722C21.0367 18.9481 20.8132 19.3185 20.0079 19.7834C19.4711 20.0934 18.5428 20.4305 17.2232 20.7947C15.9036 21.1589 14.1786 21.5533 12.0482 21.978Z" fill="black" fill-opacity="0.1"/>
<g filter="url(#filter0_d_59942_979)">
<path d="M12 22C9.31667 19.7167 7.3125 17.5958 5.9875 15.6375C4.6625 13.6792 4 11.8667 4 10.2C4 7.7 4.80417 5.70833 6.4125 4.225C8.02083 2.74167 9.88333 2 12 2C14.1167 2 15.9792 2.74167 17.5875 4.225C19.1958 5.70833 20 7.7 20 10.2C20 11.8667 19.3375 13.6792 18.0125 15.6375C16.6875 17.5958 14.6833 19.7167 12 22Z" fill="#BDC8CE"/>
<path d="M12 2.5C13.9864 2.5 15.7287 3.19153 17.248 4.59277C18.7387 5.96754 19.5 7.8179 19.5 10.2002C19.4999 11.7332 18.8901 13.4487 17.5986 15.3574C16.3611 17.1865 14.4997 19.1802 12 21.3398C9.66308 19.3209 7.8842 17.4469 6.65137 15.7168L6.40137 15.3574C5.10992 13.4487 4.50005 11.7332 4.5 10.2002C4.5 7.96669 5.16853 6.20028 6.48047 4.85547L6.75195 4.59277C8.27134 3.19153 10.0136 2.5 12 2.5Z" stroke="#6E797E"/>
</g>
<path d="M9.01627 14.8591C8.8746 14.8591 8.75585 14.8112 8.66002 14.7154C8.56418 14.6195 8.51627 14.5008 8.51627 14.3591V13.3341C8.36627 13.1675 8.24543 12.982 8.15377 12.7779C8.0621 12.5737 8.01627 12.3508 8.01627 12.1091V7.35913C8.01627 6.66746 8.3371 6.16121 8.97877 5.84038C9.62043 5.51955 10.6329 5.35913 12.0163 5.35913C13.4496 5.35913 14.4746 5.5133 15.0913 5.82163C15.7079 6.12996 16.0163 6.64246 16.0163 7.35913V12.1091C16.0163 12.3508 15.9704 12.5737 15.8788 12.7779C15.7871 12.982 15.6663 13.1675 15.5163 13.3341V14.3591C15.5163 14.5008 15.4683 14.6195 15.3725 14.7154C15.2767 14.8112 15.1579 14.8591 15.0163 14.8591H14.5163C14.3746 14.8591 14.2558 14.8112 14.16 14.7154C14.0642 14.6195 14.0163 14.5008 14.0163 14.3591V13.8591H10.0163V14.3591C10.0163 14.5008 9.96835 14.6195 9.87252 14.7154C9.77668 14.8112 9.65793 14.8591 9.51627 14.8591H9.01627ZM9.01627 9.35913H15.0163V7.85913H9.01627V9.35913ZM10.2663 12.3591C10.4746 12.3591 10.6517 12.2862 10.7975 12.1404C10.9433 11.9945 11.0163 11.8175 11.0163 11.6091C11.0163 11.4008 10.9433 11.2237 10.7975 11.0779C10.6517 10.932 10.4746 10.8591 10.2663 10.8591C10.0579 10.8591 9.88085 10.932 9.73502 11.0779C9.58918 11.2237 9.51627 11.4008 9.51627 11.6091C9.51627 11.8175 9.58918 11.9945 9.73502 12.1404C9.88085 12.2862 10.0579 12.3591 10.2663 12.3591ZM13.7663 12.3591C13.9746 12.3591 14.1517 12.2862 14.2975 12.1404C14.4433 11.9945 14.5163 11.8175 14.5163 11.6091C14.5163 11.4008 14.4433 11.2237 14.2975 11.0779C14.1517 10.932 13.9746 10.8591 13.7663 10.8591C13.5579 10.8591 13.3808 10.932 13.235 11.0779C13.0892 11.2237 13.0163 11.4008 13.0163 11.6091C13.0163 11.8175 13.0892 11.9945 13.235 12.1404C13.3808 12.2862 13.5579 12.3591 13.7663 12.3591Z" fill="#6E797E"/>
<defs>
<filter id="filter0_d_59942_979" x="2" y="0" width="20" height="24" filterUnits="userSpaceOnUse" color-interpolation-filters="sRGB">
<feFlood flood-opacity="0" result="BackgroundImageFix"/>
<feColorMatrix in="SourceAlpha" type="matrix" values="0 0 0 0 0 0 0 0 0 0 0 0 0 0 0 0 0 0 127 0" result="hardAlpha"/>
<feOffset/>
<feGaussianBlur stdDeviation="1"/>
<feComposite in2="hardAlpha" operator="out"/>
<feColorMatrix type="matrix" values="0 0 0 0 0 0 0 0 0 0 0 0 0 0 0 0 0 0 0.2 0"/>
<feBlend mode="normal" in2="BackgroundImageFix" result="effect1_dropShadow_59942_979"/>
<feBlend mode="normal" in="SourceGraphic" in2="effect1_dropShadow_59942_979" result="shape"/>
</filter>
</defs>
</svg>
