<svg width="60" height="60" viewBox="0 0 60 60" fill="none" xmlns="http://www.w3.org/2000/svg">
<mask id="mask0_59838_699" style="mask-type:alpha" maskUnits="userSpaceOnUse" x="0" y="0" width="60" height="60">
<rect width="60" height="60" fill="black"/>
</mask>
<g mask="url(#mask0_59838_699)">
<path d="M38.2119 27.1621C39.0286 27.6288 39.6553 28.1618 40.0928 28.7598C40.5302 29.3577 40.749 30.0209 40.749 30.75C40.749 32.2958 39.7723 33.5571 37.8184 34.5342C35.8643 35.5112 33.3414 36 30.25 36C27.1584 36 24.6348 35.5113 22.6807 34.5342C20.7268 33.5571 19.75 32.2957 19.75 30.75C19.75 30.05 19.9619 29.4007 20.3848 28.8027C20.8076 28.205 21.3981 27.6874 22.1562 27.25L24.9121 29.8311C24.6498 29.9477 24.3656 30.0789 24.0596 30.2246C23.7533 30.3704 23.5119 30.5458 23.3369 30.75C23.716 31.2166 24.5914 31.6246 25.9619 31.9746C27.3327 32.3246 28.7625 32.5 30.25 32.5C31.7373 32.5 33.1734 32.3246 34.5586 31.9746C35.944 31.6246 36.8269 31.2167 37.2061 30.75C37.0019 30.5167 36.7388 30.3275 36.418 30.1816C36.0972 30.0358 35.7907 29.9038 35.499 29.7871L38.2119 27.1621ZM30.25 1C31.679 1.00005 33.1229 1.26216 34.5811 1.78711C36.0393 2.31211 37.352 3.10043 38.5186 4.15039C39.685 5.2003 40.6402 6.50525 41.3838 8.06543C42.1275 9.62585 42.499 11.4419 42.499 13.5127C42.499 16.2542 41.4858 19.054 39.459 21.9121C37.432 24.7704 34.3622 27.7167 30.25 30.75C26.1376 27.7167 23.068 24.7704 21.041 21.9121C19.0141 19.0539 18 16.2543 18 13.5127C18 11.4419 18.3715 9.62585 19.1152 8.06543C19.859 6.50503 20.8148 5.20038 21.9814 4.15039C23.1481 3.10039 24.4607 2.31211 25.9189 1.78711C27.3771 1.26223 28.821 1 30.25 1ZM30.25 6.1543C28.031 6.1543 26.4063 6.41209 25.377 6.92676C24.3479 7.44144 23.833 8.25385 23.833 9.36328V16.9824C23.833 17.3701 23.9067 17.7281 24.0537 18.0557C24.2007 18.3831 24.3952 18.68 24.6357 18.9473V20.5918C24.6357 20.819 24.7125 21.0094 24.8662 21.1631C25.0199 21.3168 25.2103 21.3945 25.4375 21.3945H26.2393C26.4665 21.3945 26.6568 21.3168 26.8105 21.1631C26.9643 21.0094 27.041 20.8191 27.041 20.5918V19.79H33.458V20.5918C33.458 20.8189 33.5349 21.0094 33.6885 21.1631C33.8421 21.3168 34.0326 21.3945 34.2598 21.3945H35.0625C35.2896 21.3944 35.4802 21.3167 35.6338 21.1631C35.7873 21.0094 35.8643 20.8189 35.8643 20.5918V18.9473C36.1047 18.6801 36.2983 18.3829 36.4453 18.0557C36.5924 17.7281 36.666 17.3701 36.666 16.9824V9.36328C36.666 8.21371 36.1717 7.39111 35.1826 6.89648C34.1935 6.40189 32.5491 6.15432 30.25 6.1543ZM27.4424 14.9775C27.7766 14.9775 28.061 15.0942 28.2949 15.3281C28.5288 15.5621 28.6455 15.8465 28.6455 16.1807C28.6455 16.5148 28.5288 16.7993 28.2949 17.0332C28.061 17.2671 27.7765 17.3838 27.4424 17.3838C27.1085 17.3838 26.8246 17.2668 26.5908 17.0332C26.3569 16.7993 26.2393 16.5148 26.2393 16.1807C26.2393 15.8465 26.3569 15.5621 26.5908 15.3281C26.8247 15.0944 27.1084 14.9776 27.4424 14.9775ZM33.0566 14.9775C33.3908 14.9775 33.6753 15.0942 33.9092 15.3281C34.1431 15.5621 34.2598 15.8465 34.2598 16.1807C34.2597 16.5148 34.1431 16.7993 33.9092 17.0332C33.6753 17.267 33.3907 17.3838 33.0566 17.3838C32.7228 17.3837 32.4389 17.2668 32.2051 17.0332C31.9712 16.7993 31.8536 16.5148 31.8535 16.1807C31.8535 15.8465 31.9711 15.5621 32.2051 15.3281C32.4389 15.0944 32.7227 14.9776 33.0566 14.9775ZM35.0625 10.165V12.5713H25.4375V10.165H35.0625Z" fill="black"/>
</g>
</svg>
