<svg width="24" height="24" viewBox="0 0 24 24" fill="none" xmlns="http://www.w3.org/2000/svg">
<path d="M16.5498 16.9502C17.0164 17.2169 17.375 17.5207 17.625 17.8623C17.875 18.204 18 18.5833 18 19C18 19.8832 17.4417 20.6038 16.3252 21.1621C15.2085 21.7204 13.7667 22 12 22C10.2333 22 8.79147 21.7204 7.6748 21.1621C6.55834 20.6038 6 19.8832 6 19C6 18.6001 6.12074 18.2293 6.3623 17.8877C6.60397 17.546 6.94167 17.25 7.375 17L8.9502 18.4746C8.80026 18.5413 8.6378 18.6169 8.46289 18.7002C8.28789 18.7835 8.1498 18.8833 8.0498 19C8.26646 19.2667 8.76655 19.5002 9.5498 19.7002C10.3331 19.9002 11.15 20 12 20C12.85 20 13.6712 19.9002 14.4629 19.7002C15.2542 19.5003 15.7579 19.2666 15.9746 19C15.858 18.8668 15.7085 18.758 15.5254 18.6748C15.3421 18.5915 15.1667 18.5169 15 18.4502L16.5498 16.9502Z" fill="#1C1B1F"/>
<path d="M10.3008 9.85938C10.5029 9.85941 10.6749 9.92988 10.8164 10.0713C10.958 10.213 11.0293 10.3856 11.0293 10.5879C11.0292 10.79 10.9579 10.962 10.8164 11.1035C10.6749 11.245 10.503 11.3154 10.3008 11.3154C10.0986 11.3154 9.92671 11.2449 9.78516 11.1035C9.64364 10.962 9.57236 10.79 9.57227 10.5879C9.57227 10.3856 9.64355 10.213 9.78516 10.0713C9.9267 9.92998 10.0987 9.85938 10.3008 9.85938Z" fill="#1C1B1F"/>
<path d="M13.6992 9.85938C13.9014 9.85938 14.0733 9.92993 14.2148 10.0713C14.3564 10.213 14.4277 10.3856 14.4277 10.5879C14.4276 10.79 14.3564 10.962 14.2148 11.1035C14.0733 11.245 13.9014 11.3154 13.6992 11.3154C13.497 11.3154 13.3252 11.245 13.1836 11.1035C13.0421 10.962 12.9708 10.79 12.9707 10.5879C12.9707 10.3856 13.042 10.213 13.1836 10.0713C13.3251 9.92989 13.497 9.85938 13.6992 9.85938Z" fill="#1C1B1F"/>
<path d="M14.9131 6.94629V8.40234H9.08691V6.94629H14.9131Z" fill="#1C1B1F"/>
<path fill-rule="evenodd" clip-rule="evenodd" d="M12 2C12.8166 2 13.6414 2.15026 14.4746 2.4502C15.3078 2.75015 16.058 3.19995 16.7246 3.7998C17.3912 4.39972 17.9373 5.14561 18.3623 6.03711C18.7873 6.92878 19 7.96706 19 9.15039C18.9999 10.717 18.4209 12.317 17.2627 13.9502C16.1044 15.5835 14.35 17.2667 12 19C9.65002 17.2667 7.89563 15.5835 6.7373 13.9502C5.57907 12.317 5.0001 10.717 5 9.15039C5 7.96706 5.2127 6.92878 5.6377 6.03711C6.06267 5.14561 6.60882 4.39972 7.27539 3.7998C7.94198 3.19995 8.69219 2.75015 9.52539 2.4502C10.3586 2.15026 11.1834 2 12 2ZM12 4.51855C10.6571 4.51855 9.67391 4.67398 9.05078 4.98535C8.42769 5.2969 8.11621 5.7893 8.11621 6.46094V11.0732C8.11624 11.3078 8.16004 11.5245 8.24902 11.7227C8.33804 11.9209 8.45593 12.1008 8.60156 12.2627V13.2578C8.60156 13.3954 8.64816 13.5104 8.74121 13.6035C8.83427 13.6965 8.94934 13.7432 9.08691 13.7432H9.57227C9.70984 13.7432 9.82491 13.6965 9.91797 13.6035C10.011 13.5104 10.0576 13.3954 10.0576 13.2578V12.7725H13.9424V13.2578C13.9424 13.3954 13.9889 13.5104 14.082 13.6035C14.1751 13.6965 14.2902 13.7432 14.4277 13.7432H14.9131C15.0506 13.7432 15.1657 13.6965 15.2588 13.6035C15.3518 13.5104 15.3984 13.3954 15.3984 13.2578V12.2627C15.544 12.1008 15.662 11.9209 15.751 11.7227C15.8399 11.5245 15.8838 11.3078 15.8838 11.0732V6.46094C15.8838 5.76517 15.5849 5.26719 14.9863 4.96777C14.3875 4.66837 13.3918 4.51856 12 4.51855Z" fill="#1C1B1F"/>
</svg>
